<?xml version="1.0" encoding="UTF-8" standalone="no"?>
<!DOCTYPE svg PUBLIC "-//W3C//DTD SVG 1.1//EN"
 "http://www.w3.org/Graphics/SVG/1.1/DTD/svg11.dtd">
<!-- Generated by graphviz version 2.43.0 (0)
 -->
<!-- Title: DiskGraph Pages: 1 -->
<svg width="5350pt" height="152pt"
 viewBox="0.00 0.00 5350.00 152.00" xmlns="http://www.w3.org/2000/svg" xmlns:xlink="http://www.w3.org/1999/xlink">
<g id="graph0" class="graph" transform="scale(1 1) rotate(0) translate(4 148)">
<title>DiskGraph</title>
<polygon fill="white" stroke="transparent" points="-4,4 -4,-148 5346,-148 5346,4 -4,4"/>
<g id="clust1" class="cluster">
<title>cluster_graph</title>
<polygon fill="none" stroke="white" points="8,-8 8,-136 5334,-136 5334,-8 8,-8"/>
</g>
<!-- 5528119527152286774 -->
<g id="node1" class="node">
<title>5528119527152286774</title>
<polygon fill="lightgrey" stroke="black" points="5326.5,-128 4017.5,-128 4017.5,-90 5326.5,-90 5326.5,-128"/>
<text text-anchor="middle" x="4672" y="-112.8" font-family="Times,serif" font-size="14.00">/\ state = (A_n1 :&gt; (A_m :&gt; &quot;s0&quot;) @@ A_n2 :&gt; (A_m :&gt; &quot;s0&quot;))</text>
<text text-anchor="middle" x="4672" y="-97.8" font-family="Times,serif" font-size="14.00">/\ event = &lt;&lt;[state |&#45;&gt; [state |&#45;&gt; {[state |&#45;&gt; &quot;s0&quot;, xid |&#45;&gt; A_m]}], event |&#45;&gt; &quot;init&quot;, nid |&#45;&gt; A_n2], [state |&#45;&gt; [state |&#45;&gt; {[state |&#45;&gt; &quot;s0&quot;, xid |&#45;&gt; A_m]}], event |&#45;&gt; &quot;init&quot;, nid |&#45;&gt; A_n1]&gt;&gt;</text>
</g>
<!-- 8624102331016089793 -->
<g id="node2" class="node">
<title>8624102331016089793</title>
<polygon fill="lightgrey" stroke="black" points="3992.5,-128 2683.5,-128 2683.5,-90 3992.5,-90 3992.5,-128"/>
<text text-anchor="middle" x="3338" y="-112.8" font-family="Times,serif" font-size="14.00">/\ state = (A_n1 :&gt; (A_m :&gt; &quot;s0&quot;) @@ A_n2 :&gt; (A_m :&gt; &quot;s1&quot;))</text>
<text text-anchor="middle" x="3338" y="-97.8" font-family="Times,serif" font-size="14.00">/\ event = &lt;&lt;[state |&#45;&gt; [state |&#45;&gt; {[state |&#45;&gt; &quot;s1&quot;, xid |&#45;&gt; A_m]}], event |&#45;&gt; &quot;init&quot;, nid |&#45;&gt; A_n2], [state |&#45;&gt; [state |&#45;&gt; {[state |&#45;&gt; &quot;s0&quot;, xid |&#45;&gt; A_m]}], event |&#45;&gt; &quot;init&quot;, nid |&#45;&gt; A_n1]&gt;&gt;</text>
</g>
<!-- 8160351698253362288 -->
<g id="node6" class="node">
<title>8160351698253362288</title>
<path fill="none" stroke="black" d="M2944,-54C2944,-54 2398,-54 2398,-54 2392,-54 2386,-48 2386,-42 2386,-42 2386,-28 2386,-28 2386,-22 2392,-16 2398,-16 2398,-16 2944,-16 2944,-16 2950,-16 2956,-22 2956,-28 2956,-28 2956,-42 2956,-42 2956,-48 2950,-54 2944,-54"/>
<text text-anchor="middle" x="2671" y="-38.8" font-family="Times,serif" font-size="14.00">/\ state = (A_n1 :&gt; (A_m :&gt; &quot;s0&quot;) @@ A_n2 :&gt; (A_m :&gt; &quot;s1&quot;))</text>
<text text-anchor="middle" x="2671" y="-23.8" font-family="Times,serif" font-size="14.00">/\ event = &lt;&lt;[state |&#45;&gt; &quot;s1&quot;, event |&#45;&gt; &quot;next1&quot;, nid |&#45;&gt; A_n2, mid |&#45;&gt; A_m]&gt;&gt;</text>
</g>
<!-- 8624102331016089793&#45;&gt;8160351698253362288 -->
<g id="edge2" class="edge">
<title>8624102331016089793&#45;&gt;8160351698253362288</title>
<path fill="none" stroke="black" d="M3170.98,-89.97C3072.58,-79.35 2948.18,-65.92 2848.09,-55.12"/>
<polygon fill="black" stroke="black" points="2848.18,-51.61 2837.86,-54.01 2847.43,-58.57 2848.18,-51.61"/>
</g>
<!-- &#45;5970409929038071812 -->
<g id="node3" class="node">
<title>&#45;5970409929038071812</title>
<polygon fill="lightgrey" stroke="black" points="2658.5,-128 1349.5,-128 1349.5,-90 2658.5,-90 2658.5,-128"/>
<text text-anchor="middle" x="2004" y="-112.8" font-family="Times,serif" font-size="14.00">/\ state = (A_n1 :&gt; (A_m :&gt; &quot;s1&quot;) @@ A_n2 :&gt; (A_m :&gt; &quot;s0&quot;))</text>
<text text-anchor="middle" x="2004" y="-97.8" font-family="Times,serif" font-size="14.00">/\ event = &lt;&lt;[state |&#45;&gt; [state |&#45;&gt; {[state |&#45;&gt; &quot;s0&quot;, xid |&#45;&gt; A_m]}], event |&#45;&gt; &quot;init&quot;, nid |&#45;&gt; A_n2], [state |&#45;&gt; [state |&#45;&gt; {[state |&#45;&gt; &quot;s1&quot;, xid |&#45;&gt; A_m]}], event |&#45;&gt; &quot;init&quot;, nid |&#45;&gt; A_n1]&gt;&gt;</text>
</g>
<!-- &#45;5970409929038071812&#45;&gt;8160351698253362288 -->
<g id="edge3" class="edge">
<title>&#45;5970409929038071812&#45;&gt;8160351698253362288</title>
<path fill="none" stroke="black" d="M2171.02,-89.97C2269.42,-79.35 2393.82,-65.92 2493.91,-55.12"/>
<polygon fill="black" stroke="black" points="2494.57,-58.57 2504.14,-54.01 2493.82,-51.61 2494.57,-58.57"/>
</g>
<!-- 2979785016302679217 -->
<g id="node4" class="node">
<title>2979785016302679217</title>
<polygon fill="lightgrey" stroke="black" points="1324.5,-128 15.5,-128 15.5,-90 1324.5,-90 1324.5,-128"/>
<text text-anchor="middle" x="670" y="-112.8" font-family="Times,serif" font-size="14.00">/\ state = (A_n1 :&gt; (A_m :&gt; &quot;s1&quot;) @@ A_n2 :&gt; (A_m :&gt; &quot;s1&quot;))</text>
<text text-anchor="middle" x="670" y="-97.8" font-family="Times,serif" font-size="14.00">/\ event = &lt;&lt;[state |&#45;&gt; [state |&#45;&gt; {[state |&#45;&gt; &quot;s1&quot;, xid |&#45;&gt; A_m]}], event |&#45;&gt; &quot;init&quot;, nid |&#45;&gt; A_n2], [state |&#45;&gt; [state |&#45;&gt; {[state |&#45;&gt; &quot;s1&quot;, xid |&#45;&gt; A_m]}], event |&#45;&gt; &quot;init&quot;, nid |&#45;&gt; A_n1]&gt;&gt;</text>
</g>
<!-- 6657083039337625470 -->
<g id="node5" class="node">
<title>6657083039337625470</title>
<path fill="none" stroke="black" d="M943,-54C943,-54 397,-54 397,-54 391,-54 385,-48 385,-42 385,-42 385,-28 385,-28 385,-22 391,-16 397,-16 397,-16 943,-16 943,-16 949,-16 955,-22 955,-28 955,-28 955,-42 955,-42 955,-48 949,-54 943,-54"/>
<text text-anchor="middle" x="670" y="-38.8" font-family="Times,serif" font-size="14.00">/\ state = (A_n1 :&gt; (A_m :&gt; &quot;s1&quot;) @@ A_n2 :&gt; (A_m :&gt; &quot;s1&quot;))</text>
<text text-anchor="middle" x="670" y="-23.8" font-family="Times,serif" font-size="14.00">/\ event = &lt;&lt;[state |&#45;&gt; &quot;s1&quot;, event |&#45;&gt; &quot;next1&quot;, nid |&#45;&gt; A_n1, mid |&#45;&gt; A_m]&gt;&gt;</text>
</g>
<!-- 2979785016302679217&#45;&gt;6657083039337625470 -->
<g id="edge1" class="edge">
<title>2979785016302679217&#45;&gt;6657083039337625470</title>
<path fill="none" stroke="black" d="M670,-89.83C670,-82.13 670,-72.97 670,-64.42"/>
<polygon fill="black" stroke="black" points="673.5,-64.41 670,-54.41 666.5,-64.41 673.5,-64.41"/>
</g>
<!-- 6657083039337625470&#45;&gt;6657083039337625470 -->
<g id="edge4" class="edge">
<title>6657083039337625470&#45;&gt;6657083039337625470</title>
<path fill="none" stroke="black" d="M955.32,-44.24C970.8,-41.98 980,-38.9 980,-35 980,-32.04 974.72,-29.56 965.42,-27.55"/>
<polygon fill="black" stroke="black" points="965.78,-24.06 955.32,-25.76 964.56,-30.95 965.78,-24.06"/>
</g>
<!-- 8160351698253362288&#45;&gt;8160351698253362288 -->
<g id="edge5" class="edge">
<title>8160351698253362288&#45;&gt;8160351698253362288</title>
<path fill="none" stroke="black" d="M2956.32,-44.24C2971.8,-41.98 2981,-38.9 2981,-35 2981,-32.04 2975.72,-29.56 2966.42,-27.55"/>
<polygon fill="black" stroke="black" points="2966.78,-24.06 2956.32,-25.76 2965.56,-30.95 2966.78,-24.06"/>
</g>
</g>
</svg>
